<?xml version="1.0" encoding="UTF-8"?>
<svg id="Layer_1" xmlns="http://www.w3.org/2000/svg" xmlns:xlink="http://www.w3.org/1999/xlink" version="1.1" viewBox="0 0 800 800">
  <!-- Generator: Adobe Illustrator 29.2.1, SVG Export Plug-In . SVG Version: 2.1.0 Build 116)  -->
  <defs>
    <style>
      .st0 {
        fill: #ffdb70;
      }
    </style>
  </defs>
  <path class="st0" d="M792,0H8C3.6,0,0,3.6,0,8v784.1c0,4.4,3.6,8,8,8h784.1c4.4,0,8-3.6,8-8V8C800,3.6,796.4,0,792,0ZM784.1,784.1H15.9V15.9h768.1v768.1Z"/>
  <path class="st0" d="M192,266.3c.5,0,.9,0,1.4,0,18.4,0,36.6-7.5,50.2-20.7,14.3-13.9,22.2-32.7,22.3-52.7,0-19.6-7.6-38.1-21.6-52.1-13.9-14-32.3-21.7-51.8-21.7,0,0,0,0,0,0-19.7,0-38.2,7.6-52.2,21.5-14,13.9-21.8,32.4-21.8,52,0,20.1,7.9,38.8,22.2,52.9,13.8,13.6,32.5,21.1,51.4,20.8ZM151.4,151.9c11-10.9,25.6-16.9,41-16.9h0c15.2,0,29.6,6.1,40.6,17,10.9,11,17,25.5,16.9,40.8,0,15.7-6.2,30.4-17.4,41.3-10.9,10.6-25.5,16.5-40.3,16.2,0,0-.1,0-.2,0s-.1,0-.2,0c-14.6.3-29.2-5.6-40.1-16.2-11.2-11-17.4-25.8-17.4-41.5,0-15.3,6.1-29.8,17.1-40.7Z"/>
  <path class="st0" d="M230.6,300.5h-76.9c-14.4,0-26.1,11.7-26.1,26v328.2c0,14.4,11.7,26,26.1,26h76.9c14.4,0,26.1-11.7,26.1-26v-328.2c0-14.4-11.7-26-26.1-26ZM240.8,654.8c0,5.6-4.5,10.1-10.1,10.1h-76.9c-5.6,0-10.1-4.5-10.1-10.1v-328.2c0-5.6,4.5-10.1,10.1-10.1h76.9c5.6,0,10.1,4.5,10.1,10.1v328.2Z"/>
  <path class="st0" d="M549,291.2h-19.7c-34.7,0-67.6,15.3-90,41.3v-16.6c0-8.5-6.9-15.5-15.5-15.5h-96c-8.5,0-15.5,6.9-15.5,15.5v349.4c0,8.5,6.9,15.5,15.5,15.5h98.1c8.5,0,15.5-6.9,15.5-15.5v-201.8c0-30.7,24.6-55.9,54.8-56.3,15.1-.1,29.2,5.6,39.9,16.3,10.5,10.5,16.2,24.4,16.2,39.2v202.7c0,8.5,6.9,15.5,15.5,15.5h98.3s0,0,0,0c4.1,0,8-1.6,10.9-4.5,2.9-2.9,4.5-6.8,4.5-11v-42.3c0-4.4-3.6-8-8-8s-8,3.6-8,8v41.9h-97.4v-202.2c0-19.1-7.4-37-20.9-50.5-13.7-13.7-31.9-21.1-51.3-20.9-38.9.4-70.6,32.8-70.6,72.2v201.4h-97.2v-348.5h95.1v39.8c0,5.3,5,8.6,9.9,8,2.9-.3,4.9-2.1,6.3-4.6,1.7-2.9,3.4-5.8,5.3-8.5,19.2-27.6,50.8-44.1,84.4-44.1h19.7c64.2,0,116.4,52.1,116.6,116.2,0,.1,0,.3,0,.4v36.8c0,4.4,3.6,8,8,8s8-3.6,8-8v-36.4c0-.1,0-.3,0-.4,0-73.1-59.5-132.6-132.6-132.6Z"/>
  <path class="st0" d="M673.6,514.7c-4.4,0-8,3.6-8,8v43c0,4.4,3.6,8,8,8s8-3.6,8-8v-43c0-4.4-3.6-8-8-8Z"/>
  <path class="st0" d="M650.2,81.3h68.5c4.4,0,8-3.6,8-8s-3.6-8-8-8h-68.5c-4.4,0-8,3.6-8,8s3.6,8,8,8Z"/>
  <path class="st0" d="M318.7,81.3h251.8c4.4,0,8-3.6,8-8s-3.6-8-8-8h-251.8c-4.4,0-8,3.6-8,8s3.6,8,8,8Z"/>
</svg>